HIERARCHY
ROOT mixamorig:Hips
{
	OFFSET 0.000000 201.639420 0.000000
	CHANNELS 6 Xposition Yposition Zposition Xrotation Yrotation Zrotation
	JOINT mixamorig:Spine
	{
		OFFSET 0.006200 19.524994 -2.481800
		CHANNELS 3 Xrotation Yrotation Zrotation
		JOINT mixamorig:Spine1
		{
			OFFSET -0.000900 22.835007 -2.825400
			CHANNELS 3 Xrotation Yrotation Zrotation
			JOINT mixamorig:Spine2
			{
				OFFSET -0.020600 26.552490 -3.193300
				CHANNELS 3 Xrotation Yrotation Zrotation
				JOINT mixamorig:Neck
				{
					OFFSET -0.060000 30.701813 1.352200
					CHANNELS 3 Xrotation Yrotation Zrotation
					JOINT mixamorig:Head
					{
						OFFSET -0.087200 22.547607 3.670900
						CHANNELS 3 Xrotation Yrotation Zrotation
						JOINT mixamorig:HeadTop_End
						{
							OFFSET -0.830600 40.355194 7.893500
							CHANNELS 3 Xrotation Yrotation Zrotation
							End Site
							{
								OFFSET 0.000000 30.592346 0.000000
							}
						}
						JOINT mixamorig:RightEye
						{
							OFFSET -6.302100 18.118591 16.197100
							CHANNELS 3 Xrotation Yrotation Zrotation
							End Site
							{
								OFFSET 0.000000 30.592346 0.000000
							}
						}
						JOINT mixamorig:LeftEye
						{
							OFFSET 6.741500 18.382690 16.401899
							CHANNELS 3 Xrotation Yrotation Zrotation
							End Site
							{
								OFFSET 0.000000 30.592346 0.000000
							}
						}
					}
				}
				JOINT mixamorig:LeftShoulder
				{
					OFFSET 11.924900 18.230499 1.425400
					CHANNELS 3 Xrotation Yrotation Zrotation
					JOINT mixamorig:LeftArm
					{
						OFFSET 25.435989 -0.697632 -5.229300
						CHANNELS 3 Xrotation Yrotation Zrotation
						JOINT mixamorig:LeftForeArm
						{
							OFFSET 54.684776 0.000000 0.000000
							CHANNELS 3 Xrotation Yrotation Zrotation
							JOINT mixamorig:LeftHand
							{
								OFFSET 55.098175 0.000000 0.000000
								CHANNELS 3 Xrotation Yrotation Zrotation
								JOINT mixamorig:LeftHandMiddle1
								{
									OFFSET 23.369751 0.000000 0.000000
									CHANNELS 3 Xrotation Yrotation Zrotation
									JOINT mixamorig:LeftHandMiddle2
									{
										OFFSET 6.378677 0.000000 0.000000
										CHANNELS 3 Xrotation Yrotation Zrotation
										JOINT mixamorig:LeftHandMiddle3
										{
											OFFSET 6.148331 0.000000 0.000000
											CHANNELS 3 Xrotation Yrotation Zrotation
											JOINT mixamorig:LeftHandMiddle4
											{
												OFFSET 6.582504 0.000000 0.000000
												CHANNELS 3 Xrotation Yrotation Zrotation
												End Site
												{
													OFFSET -1.168900 6.395691 1.028606
												}
											}
										}
									}
								}
								JOINT mixamorig:LeftHandThumb1
								{
									OFFSET 7.235672 -3.848206 5.434273
									CHANNELS 3 Xrotation Yrotation Zrotation
									JOINT mixamorig:LeftHandThumb2
									{
										OFFSET 6.568451 -3.792297 3.792300
										CHANNELS 3 Xrotation Yrotation Zrotation
										JOINT mixamorig:LeftHandThumb3
										{
											OFFSET 6.063080 -3.500519 3.500518
											CHANNELS 3 Xrotation Yrotation Zrotation
											JOINT mixamorig:LeftHandThumb4
											{
												OFFSET 4.793182 -2.767334 2.767349
												CHANNELS 3 Xrotation Yrotation Zrotation
												End Site
												{
													OFFSET 0.101639 6.054260 1.275483
												}
											}
										}
									}
								}
								JOINT mixamorig:LeftHandIndex1
								{
									OFFSET 23.101074 -0.309540 4.992809
									CHANNELS 3 Xrotation Yrotation Zrotation
									JOINT mixamorig:LeftHandIndex2
									{
										OFFSET 6.226883 0.000000 0.000000
										CHANNELS 3 Xrotation Yrotation Zrotation
										JOINT mixamorig:LeftHandIndex3
										{
											OFFSET 6.094330 0.000000 0.000000
											CHANNELS 3 Xrotation Yrotation Zrotation
											JOINT mixamorig:LeftHandIndex4
											{
												OFFSET 5.482605 0.000000 0.000000
												CHANNELS 3 Xrotation Yrotation Zrotation
												End Site
												{
													OFFSET -1.427902 5.233032 0.797164
												}
											}
										}
									}
								}
								JOINT mixamorig:LeftHandRing1
								{
									OFFSET 22.299240 0.021149 -3.964172
									CHANNELS 3 Xrotation Yrotation Zrotation
									JOINT mixamorig:LeftHandRing2
									{
										OFFSET 6.321869 0.000000 0.000000
										CHANNELS 3 Xrotation Yrotation Zrotation
										JOINT mixamorig:LeftHandRing3
										{
											OFFSET 5.899796 0.000000 0.000000
											CHANNELS 3 Xrotation Yrotation Zrotation
											JOINT mixamorig:LeftHandRing4
											{
												OFFSET 6.517899 0.000000 0.000000
												CHANNELS 3 Xrotation Yrotation Zrotation
												End Site
												{
													OFFSET -1.637299 6.232208 0.980890
												}
											}
										}
									}
								}
								JOINT mixamorig:LeftHandPinky1
								{
									OFFSET 20.463791 -0.302338 -8.562233
									CHANNELS 3 Xrotation Yrotation Zrotation
									JOINT mixamorig:LeftHandPinky2
									{
										OFFSET 6.908646 0.000000 0.000000
										CHANNELS 3 Xrotation Yrotation Zrotation
										JOINT mixamorig:LeftHandPinky3
										{
											OFFSET 4.622849 0.000000 0.000000
											CHANNELS 3 Xrotation Yrotation Zrotation
											JOINT mixamorig:LeftHandPinky4
											{
												OFFSET 5.216080 0.000000 0.000000
												CHANNELS 3 Xrotation Yrotation Zrotation
												End Site
												{
													OFFSET -0.606308 5.116241 0.814926
												}
											}
										}
									}
								}
							}
						}
					}
				}
				JOINT mixamorig:RightShoulder
				{
					OFFSET -12.001300 18.284088 1.348900
					CHANNELS 3 Xrotation Yrotation Zrotation
					JOINT mixamorig:RightArm
					{
						OFFSET -25.308500 -0.751312 -5.164599
						CHANNELS 3 Xrotation Yrotation Zrotation
						JOINT mixamorig:RightForeArm
						{
							OFFSET -54.684429 0.000000 0.000000
							CHANNELS 3 Xrotation Yrotation Zrotation
							JOINT mixamorig:RightHand
							{
								OFFSET -55.150291 0.000000 0.000000
								CHANNELS 3 Xrotation Yrotation Zrotation
								JOINT mixamorig:RightHandMiddle1
								{
									OFFSET -23.317566 0.000000 0.000000
									CHANNELS 3 Xrotation Yrotation Zrotation
									JOINT mixamorig:RightHandMiddle2
									{
										OFFSET -6.378403 0.000000 0.000000
										CHANNELS 3 Xrotation Yrotation Zrotation
										JOINT mixamorig:RightHandMiddle3
										{
											OFFSET -6.148193 0.000000 0.000000
											CHANNELS 3 Xrotation Yrotation Zrotation
											JOINT mixamorig:RightHandMiddle4
											{
												OFFSET -6.583389 0.000000 0.000000
												CHANNELS 3 Xrotation Yrotation Zrotation
												End Site
												{
													OFFSET 1.171692 6.395905 1.029786
												}
											}
										}
									}
								}
								JOINT mixamorig:RightHandThumb1
								{
									OFFSET -7.190521 -3.860474 5.435846
									CHANNELS 3 Xrotation Yrotation Zrotation
									JOINT mixamorig:RightHandThumb2
									{
										OFFSET -6.567429 -3.791718 3.791708
										CHANNELS 3 Xrotation Yrotation Zrotation
										JOINT mixamorig:RightHandThumb3
										{
											OFFSET -6.062469 -3.500153 3.500166
											CHANNELS 3 Xrotation Yrotation Zrotation
											JOINT mixamorig:RightHandThumb4
											{
												OFFSET -4.792618 -2.767029 2.767022
												CHANNELS 3 Xrotation Yrotation Zrotation
												End Site
												{
													OFFSET -0.100327 6.053253 1.276754
												}
											}
										}
									}
								}
								JOINT mixamorig:RightHandIndex1
								{
									OFFSET -23.048981 -0.310791 4.992554
									CHANNELS 3 Xrotation Yrotation Zrotation
									JOINT mixamorig:RightHandIndex2
									{
										OFFSET -6.227539 0.000000 0.000000
										CHANNELS 3 Xrotation Yrotation Zrotation
										JOINT mixamorig:RightHandIndex3
										{
											OFFSET -6.095047 0.000000 0.000000
											CHANNELS 3 Xrotation Yrotation Zrotation
											JOINT mixamorig:RightHandIndex4
											{
												OFFSET -5.484772 0.000000 0.000000
												CHANNELS 3 Xrotation Yrotation Zrotation
												End Site
												{
													OFFSET 1.420593 5.237305 0.797056
												}
											}
										}
									}
								}
								JOINT mixamorig:RightHandRing1
								{
									OFFSET -22.246323 0.020569 -3.963762
									CHANNELS 3 Xrotation Yrotation Zrotation
									JOINT mixamorig:RightHandRing2
									{
										OFFSET -6.322128 0.000000 0.000000
										CHANNELS 3 Xrotation Yrotation Zrotation
										JOINT mixamorig:RightHandRing3
										{
											OFFSET -5.900024 0.000000 0.000000
											CHANNELS 3 Xrotation Yrotation Zrotation
											JOINT mixamorig:RightHandRing4
											{
												OFFSET -6.518356 0.000000 0.000000
												CHANNELS 3 Xrotation Yrotation Zrotation
												End Site
												{
													OFFSET 1.636398 6.232697 0.982186
												}
											}
										}
									}
								}
								JOINT mixamorig:RightHandPinky1
								{
									OFFSET -20.411011 -0.303314 -8.561701
									CHANNELS 3 Xrotation Yrotation Zrotation
									JOINT mixamorig:RightHandPinky2
									{
										OFFSET -6.907349 0.000000 0.000000
										CHANNELS 3 Xrotation Yrotation Zrotation
										JOINT mixamorig:RightHandPinky3
										{
											OFFSET -4.623840 0.000000 0.000000
											CHANNELS 3 Xrotation Yrotation Zrotation
											JOINT mixamorig:RightHandPinky4
											{
												OFFSET -5.218353 0.000000 0.000000
												CHANNELS 3 Xrotation Yrotation Zrotation
												End Site
												{
													OFFSET 0.602097 5.118835 0.816273
												}
											}
										}
									}
								}
							}
						}
					}
				}
			}
		}
	}
	JOINT mixamorig:LeftUpLeg
	{
		OFFSET 18.168400 -13.561905 -0.039000
		CHANNELS 3 Xrotation Yrotation Zrotation
		JOINT mixamorig:LeftLeg
		{
			OFFSET 0.577358 -80.825211 -3.695000
			CHANNELS 3 Xrotation Yrotation Zrotation
			JOINT mixamorig:LeftFoot
			{
				OFFSET -0.577356 -83.370262 -6.520700
				CHANNELS 3 Xrotation Yrotation Zrotation
				JOINT mixamorig:LeftToeBase
				{
					OFFSET 0.750401 -20.798306 25.135401
					CHANNELS 3 Xrotation Yrotation Zrotation
					JOINT mixamorig:LeftToe_End
					{
						OFFSET -0.000500 0.001200 19.917799
						CHANNELS 3 Xrotation Yrotation Zrotation
						End Site
						{
							OFFSET 0.000000 19.917805 0.000000
						}
					}
				}
			}
		}
	}
	JOINT mixamorig:RightUpLeg
	{
		OFFSET -18.162500 -13.585098 -0.041000
		CHANNELS 3 Xrotation Yrotation Zrotation
		JOINT mixamorig:RightLeg
		{
			OFFSET -0.595024 -80.945297 -3.631900
			CHANNELS 3 Xrotation Yrotation Zrotation
			JOINT mixamorig:RightFoot
			{
				OFFSET 0.595024 -83.218193 -6.561200
				CHANNELS 3 Xrotation Yrotation Zrotation
				JOINT mixamorig:RightToeBase
				{
					OFFSET -0.753601 -20.807106 25.115000
					CHANNELS 3 Xrotation Yrotation Zrotation
					JOINT mixamorig:RightToe_End
					{
						OFFSET 0.000299 0.001700 19.918200
						CHANNELS 3 Xrotation Yrotation Zrotation
						End Site
						{
							OFFSET 0.000000 19.918203 0.000000
						}
					}
				}
			}
		}
	}
}
MOTION
Frames: 4
Frame Time: 0.033333
-18.379816 187.929993 2.180185 5.866832 -19.538562 10.378292 7.192603 -0.685440 4.647578 14.156227 -1.366381 7.678038 14.240652 -1.122153 7.536743 -5.194948 -2.333716 0.435295 -0.626397 -11.326444 5.614641 -0.000001 0.000003 0.000001 -0.000001 0.000003 0.000001 -0.000001 0.000003 0.000001 0.670110 -3.083405 -11.912586 16.270757 -28.563001 -44.694381 -0.000436 -84.942596 -0.000474 13.712027 7.663569 5.191356 0.020277 0.528904 -4.387017 0.029857 0.641938 -5.327408 0.007416 0.320377 -2.655619 -0.000002 0.000000 -0.000001 -4.476085 -9.801953 14.664927 3.939055 7.948716 0.746809 -0.579474 1.574986 2.538715 0.000000 0.000002 -0.000004 0.020411 0.530820 -4.403011 0.029692 0.640028 -5.311411 0.007408 0.320368 -2.655623 0.000000 -0.000000 0.000001 0.020406 0.530823 -4.403012 0.029696 0.640031 -5.311413 0.007409 0.320379 -2.655626 0.000001 -0.000001 -0.000002 0.314372 4.574473 -3.905677 0.017367 -3.414520 -5.820019 0.007412 0.320386 -2.655617 -0.000001 0.000001 0.000001 0.278793 -6.499973 7.954729 -85.629050 10.774722 44.240566 -0.000056 72.402102 0.000064 -8.912719 -30.261659 -17.367040 3.321749 -5.930725 58.475585 9.231649 -6.564041 109.229478 2.905107 -5.655435 54.349472 0.000002 -0.000003 -0.000002 36.143141 -6.986490 -18.453995 4.780917 -14.354640 -6.620797 -1.025244 -2.626385 -5.358249 0.000000 0.000002 -0.000000 0.000870 0.110968 -0.910587 0.009742 -0.368825 3.027897 0.002438 -0.184478 1.513934 -0.000000 0.000000 0.000000 3.321742 -5.930730 58.475585 9.231644 -6.564039 109.229478 2.905091 -5.655417 54.349472 0.000001 0.000002 -0.000002 3.321743 -5.930708 58.475579 9.231631 -6.564025 109.229485 2.905090 -5.655430 54.349472 0.000003 0.000001 -0.000000 -25.488856 19.502738 27.720598 26.297576 -1.322068 -4.906643 18.167914 -0.825936 -6.101347 -21.326914 0.666165 -8.149164 0.000000 -0.000001 0.000000 -35.342127 10.529076 -9.524566 44.257181 8.618683 -10.557680 -14.110671 -1.556067 13.310367 -0.002404 -0.000003 -0.000003 0.000000 -0.000000 -0.000000 
-17.656054 187.643417 1.510983 6.263030 -19.587442 10.337192 7.245130 -0.709526 4.431698 14.270167 -1.468653 7.671418 14.316168 -1.205377 7.596580 -4.936955 -0.636291 0.117022 -2.701945 -3.322192 2.976687 -0.000000 -0.000001 0.000001 -0.000000 -0.000001 0.000001 -0.000000 -0.000001 0.000001 0.668079 -3.177301 -11.868997 17.838321 -27.888661 -44.315138 -0.000182 -85.445974 -0.000177 14.519794 6.502364 6.793304 0.020277 0.528903 -4.387018 0.029856 0.641938 -5.327408 0.007420 0.320376 -2.655616 -0.000002 0.000000 0.000000 -4.476087 -9.801953 14.664925 3.939053 7.948718 0.746809 -0.579472 1.574990 2.538709 0.000003 0.000001 0.000002 0.020410 0.530817 -4.403005 0.029692 0.640029 -5.311413 0.007408 0.320369 -2.655621 0.000001 0.000002 -0.000000 0.020405 0.530821 -4.403011 0.029693 0.640033 -5.311413 0.007408 0.320379 -2.655623 -0.000002 -0.000000 -0.000002 0.314372 4.574471 -3.905678 0.017365 -3.414519 -5.820017 0.007411 0.320383 -2.655622 -0.000001 -0.000001 0.000005 0.238408 -6.994820 8.266601 -83.776225 8.881901 43.886506 0.000988 86.704375 -0.000971 -7.746302 -27.412350 -16.358795 3.321741 -5.930721 58.475592 9.231666 -6.564058 109.229444 2.905083 -5.655425 54.349461 -0.000001 -0.000001 0.000001 36.143158 -6.986482 -18.453998 4.780927 -14.354638 -6.620796 -1.025240 -2.626381 -5.358251 -0.000006 -0.000001 0.000000 0.000871 0.110970 -0.910588 0.005958 -0.288513 2.368148 0.001511 -0.144290 1.184068 -0.000000 -0.000001 -0.000001 3.321740 -5.930729 58.475599 9.231659 -6.564073 109.229444 2.905091 -5.655422 54.349461 0.000002 -0.000000 -0.000002 3.321734 -5.930716 58.475606 9.231656 -6.564059 109.229444 2.905092 -5.655427 54.349465 0.000001 0.000001 -0.000001 -25.724405 18.551743 28.004571 26.264816 -2.259380 -5.482593 18.141717 -0.829913 -8.100217 -21.425571 0.690969 -8.346267 0.000000 0.000001 0.000000 -36.202526 10.405761 -9.519942 44.355727 8.865278 -10.549748 -13.818110 -1.417354 13.460787 -0.002084 -0.000004 0.000004 0.000000 0.000000 0.000000 
-16.889938 187.322525 0.899928 6.511099 -19.561300 10.259536 7.337511 -0.741799 4.344255 14.457825 -1.561956 7.667968 14.478358 -1.284829 7.637585 -4.537920 0.922244 -0.261510 -4.335698 4.044108 0.632820 0.000002 0.000001 -0.000000 0.000002 0.000001 -0.000000 0.000002 0.000001 -0.000000 0.665451 -3.223037 -11.715193 18.873295 -27.301910 -44.207098 0.000008 -85.947918 -0.000010 14.619178 5.255856 8.281808 0.020277 0.528905 -4.387022 0.029857 0.641937 -5.327402 0.007417 0.320377 -2.655616 -0.000001 -0.000000 -0.000000 -4.476086 -9.801955 14.664928 3.939055 7.948714 0.746812 -0.579471 1.574988 2.538709 0.000001 -0.000001 0.000002 0.020408 0.530817 -4.403002 0.029695 0.640033 -5.311413 0.007409 0.320370 -2.655622 0.000000 0.000001 -0.000003 0.020403 0.530821 -4.403008 0.029694 0.640033 -5.311411 0.007408 0.320381 -2.655626 -0.000002 -0.000001 -0.000001 0.314372 4.574470 -3.905676 0.017366 -3.414521 -5.820020 0.007412 0.320387 -2.655620 -0.000001 0.000001 0.000000 0.199505 -7.472260 8.579003 -82.320445 7.499408 42.955326 0.000013 103.103147 -0.000012 -5.843302 -19.902068 -16.804412 3.321764 -5.930733 58.475613 9.231660 -6.564063 109.229444 2.905095 -5.655439 54.349441 0.000003 -0.000002 -0.000002 36.143158 -6.986493 -18.453993 4.780922 -14.354635 -6.620798 -1.025241 -2.626382 -5.358251 0.000000 -0.000001 -0.000003 0.000876 0.110966 -0.910584 0.003908 -0.232747 1.910091 0.000951 -0.116381 0.955042 0.000003 0.000003 0.000001 3.321763 -5.930749 58.475613 9.231648 -6.564059 109.229437 2.905097 -5.655420 54.349444 0.000002 0.000003 -0.000000 3.321761 -5.930717 58.475613 9.231632 -6.564052 109.229451 2.905090 -5.655430 54.349454 -0.000003 -0.000001 -0.000001 -25.781768 17.817476 28.020791 26.161756 -2.977526 -5.615278 17.572665 -0.977873 -10.168385 -21.300374 0.595704 -7.789768 0.000000 0.000000 -0.000000 -36.951764 10.121938 -9.666233 44.476676 8.890561 -10.527631 -13.602213 -0.933020 13.671660 -0.002002 -0.000003 -0.000001 0.000000 -0.000000 0.000000 
-16.065342 186.995544 0.375892 6.442282 -19.152730 9.788151 7.456251 -0.843897 4.456728 14.713809 -1.756847 7.731757 14.724833 -1.471691 7.722295 -4.082016 2.119861 -0.644519 -5.167710 9.700468 -1.189943 0.000001 -0.000000 -0.000002 0.000001 -0.000000 -0.000002 0.000001 -0.000000 -0.000002 0.663775 -3.164134 -11.548667 19.372781 -26.943785 -44.260790 -0.000473 -86.439821 -0.000474 14.297857 4.440843 9.371843 0.020278 0.528903 -4.387019 0.029856 0.641936 -5.327405 0.007416 0.320379 -2.655618 -0.000001 -0.000001 -0.000001 -4.476085 -9.801957 14.664928 3.939055 7.948718 0.746814 -0.579472 1.574989 2.538714 0.000001 -0.000001 0.000002 0.020409 0.530818 -4.403005 0.029694 0.640028 -5.311410 0.007411 0.320369 -2.655627 -0.000001 0.000002 -0.000004 0.020407 0.530822 -4.403010 0.029695 0.640032 -5.311411 0.007409 0.320378 -2.655628 -0.000000 -0.000000 -0.000000 0.314372 4.574471 -3.905679 0.017366 -3.414520 -5.820018 0.007408 0.320385 -2.655621 -0.000001 0.000002 0.000001 0.183396 -7.665145 8.713891 -81.977092 7.732829 42.478476 0.000028 115.923664 -0.000026 -2.518287 -8.668004 -19.615190 3.321760 -5.930727 58.475620 9.231666 -6.564073 109.229417 2.905109 -5.655437 54.349441 0.000002 0.000001 0.000006 36.247981 -6.919653 -18.297836 4.780925 -14.354640 -6.620799 -1.025242 -2.626389 -5.358248 0.000001 0.000000 -0.000001 0.000901 0.110960 -0.910593 0.002856 -0.199867 1.640230 0.000692 -0.099934 0.820121 0.000002 0.000005 0.000000 3.321761 -5.930745 58.475626 9.231659 -6.564076 109.229410 2.905117 -5.655430 54.349451 0.000002 0.000002 0.000000 3.321750 -5.930719 58.475620 9.231661 -6.564076 109.229423 2.905115 -5.655436 54.349454 0.000000 0.000000 -0.000003 -25.830918 17.225998 28.339099 26.073212 -3.705301 -5.843494 16.359652 -1.011401 -11.793244 -20.790230 0.381645 -6.260319 -0.000000 0.000000 0.000000 -37.280207 9.501702 -9.776044 44.542379 8.903372 -10.507303 -13.456527 -0.667252 13.884998 -0.002157 0.000006 -0.000004 0.000000 -0.000000 0.000000 
